<svg xmlns="http://www.w3.org/2000/svg" xmlns:xlink="http://www.w3.org/1999/xlink" width="1080" zoomAndPan="magnify" viewBox="0 0 810 809.999993" height="1080" preserveAspectRatio="xMidYMid meet" version="1.0"><path fill="#8675cc" d="M 389.972656 243.75 L 392.34375 243.75 L 393.136719 245.332031 L 395.507812 246.121094 L 395.507812 244.539062 L 406.582031 243.75 L 416.863281 244.539062 L 417.65625 245.332031 L 438.222656 245.332031 L 442.175781 246.121094 L 442.175781 244.539062 L 448.503906 245.332031 L 454.042969 246.914062 L 468.28125 250.078125 L 484.890625 254.828125 L 494.382812 258.785156 L 502.292969 261.949219 L 502.292969 263.53125 L 509.414062 265.90625 L 522.070312 273.820312 L 533.144531 282.523438 L 545.007812 293.605469 L 551.335938 300.726562 L 555.292969 304.683594 L 563.203125 314.972656 L 571.902344 329.214844 L 579.8125 344.25 L 585.351562 359.289062 L 588.515625 371.949219 L 590.097656 379.070312 L 592.46875 394.109375 L 594.84375 396.480469 L 605.125 402.019531 L 612.246094 407.5625 L 616.992188 413.101562 L 623.320312 424.179688 L 626.484375 435.257812 L 627.273438 454.25 L 627.273438 473.242188 L 625.691406 486.695312 L 621.738281 496.191406 L 616.199219 504.898438 L 609.871094 511.230469 L 601.171875 516.769531 L 591.679688 520.726562 L 584.558594 522.308594 L 580.605469 530.222656 L 574.277344 543.675781 L 563.203125 561.085938 L 552.917969 573.746094 L 550.546875 574.539062 L 548.964844 578.496094 L 548.964844 587.199219 L 559.246094 609.359375 L 563.203125 617.273438 L 564.785156 623.601562 L 564.785156 628.351562 L 563.203125 633.890625 L 560.039062 639.429688 L 553.710938 644.96875 L 548.964844 646.550781 L 536.308594 646.550781 L 523.652344 640.222656 L 501.503906 629.933594 L 487.265625 625.183594 L 469.863281 622.8125 L 357.539062 622.8125 L 341.71875 621.230469 L 337.765625 620.4375 L 324.316406 616.480469 L 308.496094 610.148438 L 295.839844 603.820312 L 282.394531 595.90625 L 272.109375 587.199219 L 267.363281 583.242188 L 261.828125 576.914062 L 255.5 571.371094 L 245.214844 557.917969 L 236.515625 542.882812 L 229.394531 527.847656 L 227.023438 523.101562 L 223.859375 522.308594 L 211.992188 518.351562 L 200.917969 511.230469 L 195.382812 505.691406 L 189.054688 495.402344 L 185.097656 484.324219 L 184.308594 480.367188 L 184.308594 434.46875 L 189.054688 420.222656 L 194.589844 411.515625 L 200.917969 405.1875 L 209.621094 399.648438 L 218.320312 394.898438 L 219.902344 386.195312 L 219.902344 381.445312 L 220.695312 377.488281 L 222.277344 369.574219 L 229.394531 348.207031 L 235.722656 334.753906 L 249.171875 312.597656 L 254.707031 305.476562 L 261.828125 297.5625 L 273.691406 285.691406 L 287.140625 275.402344 L 299.003906 267.488281 L 305.332031 263.53125 L 314.824219 259.574219 L 323.527344 255.617188 L 337.765625 250.871094 L 355.957031 246.914062 L 363.078125 246.121094 L 385.226562 245.332031 Z M 360.703125 269.863281 L 341.71875 273.820312 L 329.0625 277.777344 L 316.40625 283.316406 L 301.378906 292.8125 L 292.675781 299.933594 L 283.976562 307.058594 L 278.4375 312.597656 L 271.320312 321.300781 L 263.410156 332.382812 L 255.5 346.625 L 249.171875 360.871094 L 244.425781 377.488281 L 242.050781 391.734375 L 240.46875 413.101562 L 239.679688 415.472656 L 229.394531 416.265625 L 220.695312 419.429688 L 213.574219 424.96875 L 209.621094 430.511719 L 208.039062 435.257812 L 207.246094 438.421875 L 207.246094 478.785156 L 208.828125 485.113281 L 213.574219 491.445312 L 219.113281 496.191406 L 227.023438 499.359375 L 242.050781 500.148438 L 244.425781 502.523438 L 249.960938 518.351562 L 257.082031 533.386719 L 262.617188 542.882812 L 272.109375 555.546875 L 278.4375 561.085938 L 291.09375 573.746094 L 299.003906 579.285156 L 310.078125 585.617188 L 323.527344 591.949219 L 340.136719 597.488281 L 348.046875 599.070312 L 355.957031 599.863281 L 469.070312 599.863281 L 485.683594 601.445312 L 498.339844 604.609375 L 515.742188 610.941406 L 532.351562 618.0625 L 536.308594 618.855469 L 534.726562 611.730469 L 526.816406 595.90625 L 525.234375 589.574219 L 524.441406 576.914062 L 526.816406 569.789062 L 532.351562 561.875 L 539.472656 553.960938 L 547.382812 543.675781 L 554.5 531.804688 L 563.203125 512.019531 L 566.367188 503.316406 L 568.738281 500.148438 L 583.769531 499.359375 L 590.886719 496.191406 L 597.214844 490.652344 L 601.171875 486.695312 L 603.542969 478.785156 L 603.542969 436.839844 L 600.378906 428.925781 L 594.84375 422.597656 L 588.515625 418.640625 L 581.394531 416.265625 L 573.484375 415.472656 L 570.320312 412.308594 L 569.53125 394.109375 L 567.15625 379.070312 L 562.410156 362.453125 L 558.457031 352.164062 L 549.753906 337.128906 L 545.800781 330.007812 L 536.308594 317.34375 L 527.605469 307.847656 L 518.90625 299.933594 L 507.832031 292.023438 L 489.636719 280.941406 L 476.980469 276.195312 L 458.789062 271.445312 L 449.296875 269.863281 Z M 360.703125 269.863281 " fill-opacity="1" fill-rule="nonzero"/><path fill="#7759d1" d="M 393.925781 355.332031 L 442.175781 355.332031 L 476.191406 356.121094 L 488.054688 359.289062 L 497.546875 362.453125 L 507.832031 368.785156 L 515.742188 375.113281 L 518.90625 378.28125 L 518.90625 380.652344 L 522.070312 382.238281 L 529.980469 394.109375 L 534.726562 405.976562 L 537.890625 420.222656 L 537.890625 455.042969 L 538.679688 456.625 L 538.679688 484.324219 L 537.890625 485.90625 L 537.890625 493.820312 L 535.515625 504.105469 L 529.980469 516.769531 L 524.441406 525.472656 L 522.070312 528.640625 L 520.488281 528.640625 L 518.90625 531.804688 L 514.160156 537.34375 L 502.292969 546.050781 L 489.636719 551.589844 L 479.355469 554.753906 L 474.609375 555.546875 L 432.683594 556.335938 L 407.371094 556.335938 L 336.972656 555.546875 L 325.898438 553.171875 L 315.617188 549.214844 L 304.542969 543.675781 L 294.257812 534.96875 L 292.675781 533.386719 L 292.675781 531.011719 L 289.511719 529.429688 L 283.183594 520.726562 L 276.066406 505.691406 L 272.902344 492.238281 L 272.902344 418.640625 L 276.066406 405.976562 L 280.019531 396.480469 L 286.347656 385.402344 L 295.839844 374.324219 L 303.75 367.992188 L 314.824219 361.660156 L 329.855469 356.914062 L 333.808594 356.121094 Z M 338.554688 378.28125 L 326.691406 381.445312 L 315.617188 387.777344 L 307.707031 394.898438 L 301.378906 404.394531 L 297.421875 414.683594 L 295.839844 421.804688 L 295.839844 489.863281 L 298.214844 499.359375 L 302.960938 508.855469 L 311.660156 519.144531 L 315.617188 523.101562 L 326.691406 529.429688 L 336.183594 532.597656 L 340.929688 533.386719 L 471.445312 533.386719 L 483.308594 530.222656 L 492.011719 525.472656 L 499.921875 518.351562 L 508.621094 508.0625 L 512.578125 499.359375 L 514.949219 491.445312 L 515.742188 428.136719 L 514.160156 417.058594 L 510.203125 405.976562 L 504.667969 397.273438 L 495.964844 388.566406 L 488.847656 383.820312 L 479.355469 379.863281 L 472.234375 378.28125 Z M 338.554688 378.28125 " fill-opacity="1" fill-rule="nonzero"/><path fill="#5450db" d="M 452.460938 419.429688 L 462.742188 419.429688 L 469.070312 421.804688 L 476.980469 428.925781 L 481.726562 438.421875 L 481.726562 447.128906 L 478.5625 454.25 L 473.816406 460.582031 L 467.488281 464.539062 L 459.578125 466.914062 L 451.667969 466.121094 L 443.757812 462.164062 L 437.429688 455.042969 L 435.058594 451.085938 L 434.265625 447.921875 L 434.265625 438.421875 L 437.429688 430.511719 L 442.175781 424.96875 L 447.714844 421.015625 Z M 452.460938 419.429688 " fill-opacity="1" fill-rule="nonzero"/><path fill="#875dd6" d="M 348.839844 419.429688 L 358.332031 419.429688 L 363.867188 421.804688 L 370.195312 426.554688 L 375.734375 434.46875 L 376.523438 437.632812 L 376.523438 448.710938 L 372.570312 456.625 L 367.03125 462.164062 L 359.914062 466.121094 L 352.003906 466.914062 L 344.882812 465.332031 L 337.765625 460.582031 L 332.226562 454.25 L 329.0625 445.546875 L 329.855469 436.839844 L 333.019531 430.511719 L 338.554688 424.179688 L 346.464844 420.222656 Z M 348.839844 419.429688 " fill-opacity="1" fill-rule="nonzero"/></svg>